HIERARCHY
ROOT Hips
{
	OFFSET 0.000000 0.000000 0.000000 
	CHANNELS 6 Xposition Yposition Zposition Yrotation Zrotation Xrotation 
	JOINT Lumbar
	{
		OFFSET 0.000000 0.000000 0.000000 
		CHANNELS 3 Zrotation Xrotation Yrotation
		JOINT Neck
		{
			OFFSET 0.000000 0.445665 0.000000 
			CHANNELS 3 Zrotation Xrotation Yrotation
			End Site
			{
				OFFSET 0.000000 0.227535 0.000000 
			}
		}
		JOINT RightShoulder
		{
			OFFSET 0.019635 0.377685 0.194865 
			CHANNELS 3 Zrotation Xrotation Yrotation
			JOINT RightElbow
			{
				OFFSET 0.000000 -0.243375 0.000000 
				CHANNELS 2 Zrotation Yrotation
				JOINT RightWrist
				{
					OFFSET 0.000000 -0.264825 0.000000 
					CHANNELS 2 Zrotation Xrotation
					End Site
					{
						OFFSET 0.006600 -0.176220 0.000990 
					}
				}
			}
		}
		JOINT LeftShoulder
		{
			OFFSET 0.019635 0.377685 -0.194865 
			CHANNELS 3 Zrotation Xrotation Yrotation
			JOINT LeftElbow
			{
				OFFSET 0.000000 -0.243375 0.000000 
				CHANNELS 2 Zrotation Yrotation
				JOINT LeftWrist
				{
					OFFSET 0.000000 -0.264825 0.000000 
					CHANNELS 2 Zrotation Xrotation
					End Site
					{
						OFFSET 0.006600 -0.176220 -0.000990 
					}
				}
			}
		}
	}
	JOINT RightHip
	{
		OFFSET 0.052140 -0.069960 0.075570 
		CHANNELS 3 Zrotation Xrotation Yrotation
		JOINT RightKnee
		{
			OFFSET 0.000000 -0.402270 0.000000 
			CHANNELS 1 Zrotation
			JOINT RightAnkle
			{
				OFFSET 0.000000 -0.404085 0.000000 
				CHANNELS 3 Zrotation Xrotation Yrotation
				End Site
				{
					OFFSET 0.204105 -0.089430 0.008415 
				}
			}
		}
	}
	JOINT LeftHip
	{
		OFFSET 0.052140 -0.069960 -0.075570 
		CHANNELS 3 Zrotation Xrotation Yrotation
		JOINT LeftKnee
		{
			OFFSET 0.000000 -0.402270 0.000000 
			CHANNELS 1 Zrotation
			JOINT LeftAnkle
			{
				OFFSET 0.000000 -0.404085 0.000000 
				CHANNELS 3 Zrotation Xrotation Yrotation
				End Site
				{
					OFFSET 0.204105 -0.089430 -0.008415 
				}
			}
		}
	}
}
MOTION
Frames: 31
Frame Time: 0.02
0.00032 -6e-05 -0.00118 25.70709 -20.64846 -7.92339 44.17082 2.85518 -4.91836 -7.70374 -2.03379 -0.3253 -25.45376 -11.04705 -5.65882 32.4018 90.12908 6.51163 0.18701 -33.53701 10.47229 6.27089 35.64157 -137.15593 24.42382 -7.26158 34.33402 0.14943 -2.50926 -20.98693 -8.25819 -3.93284 -4.2241 35.10716 8.97426 6.56342 -26.78351 -8.39016 3.58822 4.06567
0.00013 -4e-05 -0.00074 25.65643 -20.67592 -7.90427 44.18798 2.82207 -4.94326 -7.769 -2.05425 -0.32773 -25.04375 -11.14875 -5.374 32.56619 89.97181 6.5129 0.18724 -32.89456 10.66029 5.54689 35.79635 -132.9953 23.35277 -6.56004 34.36291 -0.05973 -3.72918 -20.97982 -8.19072 -3.81959 -4.16541 35.1633 8.99219 6.61814 -26.78145 -8.38964 3.58436 4.064
-5e-05 -3e-05 -0.00029 25.60587 -20.70333 -7.88517 44.20503 2.78903 -4.9682 -7.83434 -2.07468 -0.33016 -24.6341 -11.25037 -5.08938 32.7303 89.81498 6.51423 0.18743 -32.25309 10.84794 4.82428 35.95104 -128.84712 22.28484 -5.86064 34.39189 -0.26824 -4.94542 -20.97275 -8.12345 -3.70668 -4.10691 35.21943 9.01009 6.6727 -26.77939 -8.38912 3.58051 4.06234
-0.00023 -2e-05 0.00016 25.55536 -20.7307 -7.8661 44.22214 2.75601 -4.99304 -7.89944 -2.09508 -0.33258 -24.22522 -11.35178 -4.80534 32.89421 89.65819 6.5155 0.18765 -31.61246 11.03539 4.10238 36.1054 -124.69925 21.21705 -5.16125 34.42071 -0.47675 -6.16159 -20.96567 -8.05618 -3.59378 -4.0484 35.27543 9.02796 6.72721 -26.77734 -8.3886 3.57667 4.06068
-0.00041 -0 0.0006 25.50477 -20.7581 -7.84701 44.23936 2.72292 -5.01779 -7.96437 -2.11553 -0.335 -23.81629 -11.45319 -4.52131 33.05835 89.50096 6.51668 0.18792 -30.97121 11.22313 3.37936 36.25973 -120.53906 20.14621 -4.45974 34.44939 -0.68592 -7.38143 -20.95853 -7.98871 -3.48053 -3.98972 35.33139 9.04588 6.78198 -26.77527 -8.38805 3.5728 4.05901
-0.0006 1e-05 0.00105 25.45426 -20.78553 -7.8279 44.25603 2.68997 -5.04312 -8.0306 -2.1359 -0.33744 -23.40514 -11.55527 -4.23546 33.22236 89.34497 6.51834 0.18795 -30.32934 11.41058 2.65765 36.41519 -116.41636 19.08447 -3.76481 34.47901 -0.89302 -8.59007 -20.95163 -7.92187 -3.36833 -3.9316 35.38786 9.06376 6.83617 -26.77324 -8.38758 3.569 4.05736
-0.00078 3e-05 0.00149 25.40366 -20.81287 -7.80887 44.27385 2.65679 -5.06727 -8.09406 -2.15639 -0.33983 -22.99896 -11.65585 -3.95368 33.38639 89.18668 6.51901 0.18846 -29.68946 11.59835 1.93419 36.56813 -112.22301 18.00563 -3.05744 34.50667 -1.10405 -9.81975 -20.94424 -7.85384 -3.25416 -3.87241 35.44325 9.08162 6.89117 -26.77114 -8.38699 3.56509 4.05568
-0.00096 4e-05 0.00194 25.35311 -20.84029 -7.78974 44.29051 2.62383 -5.09249 -8.1602 -2.1768 -0.34229 -22.58814 -11.75788 -3.66798 33.55055 89.0305 6.52062 0.18852 -29.04768 11.78592 1.21219 36.72353 -108.0944 16.94246 -2.36145 34.53617 -1.31149 -11.03033 -20.93732 -7.7869 -3.14178 -3.81419 35.49964 9.09962 6.94593 -26.7691 -8.38648 3.56125 4.054
-0.00116 6e-05 0.0024 25.30272 -20.86785 -7.77057 44.30615 2.59107 -5.11913 -8.22922 -2.197 -0.34474 -22.17153 -11.86148 -3.37788 33.71439 88.87688 6.5233 0.18807 -28.40335 11.973 0.49214 36.88154 -104.04473 15.89835 -1.67946 34.56783 -1.51445 -12.21688 -20.9309 -7.72131 -3.03167 -3.75719 35.55727 9.11732 6.99844 -26.76716 -8.38618 3.55761 4.05242
-0.00129 8e-05 0.0028 25.25171 -20.89471 -7.75188 44.32885 2.55693 -5.13792 -8.28051 -2.21806 -0.34694 -21.78786 -11.95546 -3.11426 33.87862 88.70847 6.5196 0.19068 -27.77299 12.16218 -0.23868 37.02332 -99.54013 14.74428 -0.91717 34.58681 -1.74292 -13.53967 -20.92142 -7.64801 -2.90872 -3.6933 35.60782 9.13536 7.05803 -26.76473 -8.385 3.55318 4.05058
-0.00156 8e-05 0.00333 25.20184 -20.92299 -7.732 44.33589 2.52588 -5.17307 -8.3699 -2.23754 -0.3499 -21.33505 -12.07005 -2.79414 34.04293 88.57128 6.5295 0.18673 -27.11379 12.34736 -0.9469 37.20007 -95.99617 13.82251 -0.32419 34.6327 -1.91775 -14.57623 -20.91849 -7.59092 -2.81273 -3.64386 35.67328 9.15356 7.10643 -26.76329 -8.38545 3.55015 4.04911
-0.00215 -1e-05 0.00421 25.15644 -20.95583 -7.71016 44.30565 2.50201 -5.25509 -8.55895 -2.25081 -0.353 -20.6877 -12.23947 -2.32256 34.20019 88.52067 6.57587 0.16549 -26.36929 12.51813 -1.5919 37.46807 -95.10691 13.54166 -0.20123 34.75214 -1.94214 -14.80886 -20.93284 -7.57933 -2.79271 -3.63522 35.78053 9.16434 7.09053 -26.76474 -8.39239 3.55334 4.0501
-0.00288 -0.00012 0.00522 25.112 -20.99002 -7.68685 44.25844 2.48151 -5.35313 -8.78705 -2.26284 -0.35722 -19.97208 -12.42988 -1.79373 34.3589 88.50144 6.63609 0.13755 -25.59719 12.68551 -2.21426 37.77207 -95.17903 13.49353 -0.24733 34.89877 -1.91314 -14.75681 -20.9539 -7.58386 -2.79946 -3.64091 35.90276 9.17636 7.06789 -26.76716 -8.40071 3.5576 4.05128
-0.00356 -0.00022 0.00619 25.06616 -21.02309 -7.66335 44.21558 2.46029 -5.44259 -9.0006 -2.27668 -0.36223 -19.29051 -12.61189 -1.28851 34.52169 88.46693 6.69052 0.11219 -24.84146 12.85673 -2.84806 38.06269 -94.79872 13.33644 -0.21246 35.033 -1.91085 -14.84799 -20.97232 -7.58032 -2.79259 -3.63925 36.01736 9.19344 7.0725 -26.76903 -8.40695 3.55969 4.05136
-0.00421 -0.00031 0.00709 25.02412 -21.05814 -7.64351 44.18774 2.43554 -5.53771 -9.20116 -2.28529 -0.36182 -18.59493 -12.78929 -0.79265 34.6644 88.43588 6.74275 0.08871 -24.06861 13.01835 -3.4778 38.34082 -94.48494 13.19281 -0.19517 35.167 -1.89867 -14.88295 -20.98898 -7.57985 -2.79164 -3.641 36.13482 9.18838 6.98217 -26.77135 -8.41886 3.56846 4.05542
-0.00494 -0.00043 0.00817 24.97474 -21.08962 -7.61566 44.12353 2.41906 -5.62465 -9.4375 -2.30446 -0.3729 -17.91371 -12.98109 -0.26461 34.84937 88.40618 6.80295 0.05982 -23.32603 13.19905 -4.10955 38.65348 -94.26168 13.07697 -0.18161 35.30849 -1.89373 -14.96396 -21.01095 -7.57697 -2.78506 -3.63924 36.2507 9.22772 7.079 -26.77297 -8.41988 3.5641 4.05162
-0.00588 -0.00059 0.00969 24.90214 -21.10887 -7.56644 43.972 2.42374 -5.68674 -9.76757 -2.35349 -0.4158 -17.2777 -13.20884 0.34547 35.14938 88.36625 6.88143 0.01768 -22.66406 13.43408 -4.76195 39.0521 -94.03963 12.97467 -0.13407 35.45915 -1.92822 -15.27449 -21.04548 -7.56202 -2.75303 -3.62253 36.35166 9.4073 7.77373 -26.7724 -8.3852 3.51839 4.02262
-0.0069 -0.00078 0.0114 24.82277 -21.12494 -7.50914 43.78266 2.43679 -5.7397 -10.13143 -2.41306 -0.47013 -16.66073 -13.44999 0.98439 35.49167 88.33009 6.9679 -0.02904 -22.03534 13.68823 -5.41541 39.48391 -93.87806 12.89358 -0.085 35.61738 -1.9708 -15.63598 -21.08522 -7.54433 -2.71496 -3.60208 36.45189 9.62857 8.64385 -26.77109 -8.34039 3.46021 3.98626
-0.00789 -0.00096 0.01304 24.74813 -21.14372 -7.45532 43.60496 2.44654 -5.79584 -10.47687 -2.46758 -0.51897 -16.04219 -13.68433 1.60567 35.81602 88.29334 7.05043 -0.07452 -21.39775 13.93309 -6.06209 39.90138 -93.6969 12.80659 -0.03841 35.77524 -2.00535 -15.95181 -21.12287 -7.52888 -2.6819 -3.58453 36.55685 9.8185 9.37953 -26.77015 -8.3038 3.41104 3.95561
-0.00885 -0.00114 0.01461 24.66604 -21.1569 -7.40227 43.45066 2.45419 -5.85683 -10.83665 -2.52333 -0.56911 -15.3908 -13.92299 2.24902 36.13687 88.24335 7.13314 -0.11931 -20.73277 14.18047 -6.73447 40.31861 -93.51452 12.7112 0.01008 35.92077 -2.05586 -16.34945 -21.15955 -7.50988 -2.64047 -3.56252 36.64338 10.05919 10.33937 -26.76913 -8.2524 3.34823 3.91529
-0.0099 -0.00133 0.01638 24.59851 -21.18138 -7.3457 43.23809 2.46825 -5.90511 -11.17401 -2.57883 -0.61924 -14.81395 -14.15489 2.85132 36.47272 88.23344 7.21923 -0.16323 -20.13321 14.42709 -7.35398 40.74171 -93.33837 12.63626 0.05687 36.09381 -2.07643 -16.59657 -21.19945 -7.4973 -2.61436 -3.54857 36.76843 10.20608 10.88243 -26.76806 -8.22892 3.31033 3.89296
-0.01119 -0.00157 0.01864 24.56755 -21.23455 -7.28152 42.88012 2.49729 -5.92245 -11.44138 -2.63255 -0.66665 -14.43272 -14.37049 3.34316 36.8592 88.22451 7.29431 -0.23358 -19.70513 14.66751 -7.82597 41.18974 -93.14784 12.60395 0.10125 36.33779 -2.00642 -16.38032 -21.24651 -7.50416 -2.63488 -3.55928 36.99616 10.06594 10.15859 -26.76716 -8.28944 3.34888 3.92559
-0.01258 -0.00183 0.0211 24.55269 -21.2999 -7.21403 42.46346 2.53263 -5.9269 -11.68468 -2.68526 -0.71362 -14.12731 -14.57766 3.79056 37.25538 88.27187 7.37531 -0.29829 -19.34201 14.90628 -8.24487 41.63885 -92.96239 12.59245 0.14376 36.6098 -1.90719 -16.01777 -21.29665 -7.51736 -2.67048 -3.57794 37.26357 9.8331 9.02223 -26.76623 -8.37766 3.41209 3.97595
-0.01394 -0.00208 0.0235 24.53364 -21.36175 -7.14797 42.06996 2.56549 -5.93593 -11.93875 -2.73764 -0.7607 -13.79105 -14.78485 4.25153 37.63464 88.36985 7.46636 -0.34464 -18.95001 15.14558 -8.68925 42.07668 -92.77741 12.57524 0.18683 36.87072 -1.82569 -15.74811 -21.34575 -7.52683 -2.69702 -3.59182 37.51501 9.65463 8.12363 -26.76521 -8.45021 3.46095 4.01587
-0.01525 -0.00232 0.0258 24.50024 -21.41456 -7.08201 41.69102 2.59694 -5.95002 -12.1951 -2.79423 -0.8086 -13.43983 -15.00859 4.74155 38.06933 88.16307 7.50631 -0.47533 -18.55667 15.38698 -9.12871 42.56269 -92.57269 12.54091 0.23298 37.12436 -1.72635 -15.37294 -21.39375 -7.53957 -2.73221 -3.61024 37.75678 9.42668 7.02181 -26.76453 -8.53513 3.52257 4.06546
-0.01668 -0.00259 0.02834 24.50182 -21.48953 -7.01511 41.26696 2.63284 -5.95062 -12.44012 -2.84102 -0.85451 -13.13797 -15.1957 5.16009 38.38889 88.58333 7.65097 -0.43417 -18.18081 15.62275 -9.56485 42.94633 -92.42285 12.54962 0.26989 37.4005 -1.65627 -15.17666 -21.44442 -7.54733 -2.75363 -3.62146 38.02932 9.27827 6.23927 -26.76324 -8.60135 3.56373 4.09936
-0.01835 -0.00291 0.03148 24.58624 -21.61974 -6.94684 40.74442 2.67852 -5.91717 -12.66333 -2.86631 -0.89524 -12.95078 -15.2837 5.392 38.40106 90.90422 8.10961 0.12612 -17.8397 15.84829 -10.01273 43.06245 -92.30179 12.64744 0.30302 37.72583 -1.68181 -15.55848 -21.50407 -7.53715 -2.72832 -3.60825 38.36773 9.38041 6.47109 -26.75974 -8.60601 3.54142 4.08459
-0.02014 -0.00326 0.03487 24.70736 -21.77273 -6.87771 40.17645 2.72874 -5.87064 -12.87528 -2.88064 -0.93389 -12.8115 -15.33519 5.5533 38.29516 93.82161 8.6688 0.85142 -17.51315 16.06716 -10.45761 43.07246 -92.25491 12.79174 0.32354 38.07442 -1.73653 -16.11675 -21.56592 -7.52224 -2.68956 -3.58802 38.7381 9.56404 7.03184 -26.75591 -8.59152 3.49786 4.05364
-0.0219 -0.00359 0.03817 24.8179 -21.9168 -6.80874 39.62188 2.77731 -5.83007 -13.08972 -2.89654 -0.97335 -12.65176 -15.40315 5.747 38.23368 96.34392 9.16421 1.46996 -17.17846 16.28578 -10.89869 43.12081 -92.25734 12.93153 0.33513 38.41571 -1.77256 -16.56151 -21.62506 -7.51122 -2.66034 -3.57279 39.09919 9.70476 7.42005 -26.75233 -8.58786 3.46477 4.03086
-0.02358 -0.00392 0.04139 24.90249 -22.05383 -6.74062 39.09611 2.82379 -5.78887 -13.31389 -2.92714 -1.01343 -12.48763 -15.47075 5.93826 38.20844 99.38523 9.73475 2.2194 -16.85324 16.51834 -11.35978 43.21102 -91.92241 13.00431 0.40611 38.74221 -1.82967 -17.13928 -21.69116 -7.49306 -2.61735 -3.55028 39.43699 9.86712 7.89056 -26.74752 -8.57611 3.42929 4.00533
-0.02546 -0.00428 0.04483 25.0506 -22.21255 -6.67056 38.49999 2.87634 -5.74615 -13.5161 -2.92411 -1.05168 -12.34492 -15.53129 6.11792 38.08346 101.49459 10.17441 2.73963 -16.50996 16.72011 -11.77909 43.18873 -92.2915 13.22445 0.35348 39.10716 -1.85122 -17.48704 -21.74373 -7.48856 -2.59942 -3.54106 39.83354 10.00492 8.27404 -26.74619 -8.57639 3.3932 3.98135
